<svg xmlns="http://www.w3.org/2000/svg" viewBox="0 0 3575.41 1032.11"><defs><style>.cls-1{fill:#fff;}.cls-2{stroke:#000;stroke-miterlimit:10;}</style></defs><g id="Calque_2" data-name="Calque 2"><g id="Calque_1-2" data-name="Calque 1"><rect class="cls-1" width="1032.1" height="1032.11" rx="152.43"/><path class="cls-2" d="M664.36,245.14H367.73a25.71,25.71,0,0,1,0-51.42H664.36a25.71,25.71,0,1,1,0,51.42Z"/><path class="cls-2" d="M723.69,363.79H308.41a25.71,25.71,0,1,1,0-51.42H723.69a25.71,25.71,0,0,1,0,51.42Z"/><path class="cls-2" d="M723.69,838.39H308.41a85.13,85.13,0,0,1-85-85V516.06a85.14,85.14,0,0,1,85-85H723.69a85.13,85.13,0,0,1,85,85v237.3A85.12,85.12,0,0,1,723.69,838.39ZM308.41,482.44a33.66,33.66,0,0,0-33.62,33.62v237.3A33.66,33.66,0,0,0,308.41,787H723.69a33.66,33.66,0,0,0,33.62-33.62V516.06a33.66,33.66,0,0,0-33.62-33.62Z"/><path class="cls-1" d="M1369.15,818.61V326.21H1187.1V203.11h515.8v123.1h-182v492.4Z"/><path class="cls-1" d="M1728.05,818.61V352.21h143l5.2,141.31L1865,491.78q12.13-74.53,40.74-107t79.75-32.52h40.74v120.5h-41.6q-37.29,0-60.7,8.67t-35.1,28.18q-11.7,19.5-11.7,53.32V818.61Z"/><path class="cls-1" d="M2296.72,829Q2223,829,2168,798.66a216.54,216.54,0,0,1-85.83-84.95q-30.76-54.62-30.77-128.3t30.77-128.29a216.72,216.72,0,0,1,85.83-85q55.05-30.33,128.73-30.34T2425,372.15a217.55,217.55,0,0,1,85.39,85q30.77,54.61,30.78,128.29t-30.78,128.3A217.37,217.37,0,0,1,2425,798.66Q2370.39,829,2296.72,829Zm0-110.09q43.34,0,67.19-34.67t23.84-98.83q0-63.27-23.84-98.39t-67.19-35.11q-44.2,0-68,35.11t-23.84,98.39q0,64.15,23.84,98.83T2296.72,718.91Z"/><path class="cls-1" d="M2731.91,818.61l-170.77-466.4h155.17L2818.6,669.5,2920,352.21h154.31l-170.78,466.4Z"/><path class="cls-1" d="M3339.61,829q-72.83,0-127.44-30.34a214.42,214.42,0,0,1-85-84.95q-30.34-54.62-30.34-128.3t30.34-127.87a219.14,219.14,0,0,1,84.52-85q54.18-30.76,127-30.78t126.14,30.78q53.31,30.78,81.92,88t28.61,136.11v27.74H3251.19q2.59,48.54,27.31,72.38t63.71,23.84q29.48,0,49.42-11.69t28.6-38.58L3569.35,679q-19.08,72.83-80.63,111.4T3339.61,829Zm-88.42-289.54h173.38q-1.74-45.93-25.15-68.91t-60.68-23q-35.53,0-59.37,24.28T3251.19,539.46Z"/></g></g></svg>